<?xml version="1.0" encoding="UTF-8" standalone="no"?>
<!DOCTYPE svg PUBLIC "-//W3C//DTD SVG 1.1//EN" "http://www.w3.org/Graphics/SVG/1.1/DTD/svg11.dtd">
<!-- Generated by Microsoft Visio, SVG Export sequenceDiagram.svg Page-1 -->
<svg xmlns="http://www.w3.org/2000/svg" xmlns:xlink="http://www.w3.org/1999/xlink" xmlns:ev="http://www.w3.org/2001/xml-events"
		xmlns:v="http://schemas.microsoft.com/visio/2003/SVGExtensions/" width="11.6929in" height="8.26772in"
		viewBox="0 0 841.89 595.276" xml:space="preserve" color-interpolation-filters="sRGB" class="st36">
	<v:documentProperties v:langID="1033" v:metric="true" v:viewMarkup="false">
		<v:userDefs>
			<v:ud v:nameU="msvSubprocessMaster" v:prompt="" v:val="VT4(Rectangle)"/>
			<v:ud v:nameU="msvNoAutoConnect" v:val="VT0(1):26"/>
		</v:userDefs>
	</v:documentProperties>

	<style type="text/css">
	<![CDATA[
		.st1 {fill:url(#grad6-5);stroke:none;stroke-width:0.75}
		.st2 {fill:url(#grad6-9);stroke:none;stroke-width:0.75}
		.st3 {fill:url(#grad6-13);stroke:none;stroke-width:0.75}
		.st4 {fill:url(#grad0-22);stroke:none;stroke-width:34}
		.st5 {fill:#e8e8e8;stroke:none;stroke-width:34}
		.st6 {fill:#50e6ff;stroke:none;stroke-width:34}
		.st7 {fill:#198ab3;stroke:none;stroke-width:34}
		.st8 {fill:#f2f2f2;stroke:none;stroke-width:34}
		.st9 {fill:#1490df;stroke:none;stroke-width:34}
		.st10 {fill:url(#grad0-44);stroke:none;stroke-width:34}
		.st11 {fill:#3f5765;stroke:none;stroke-width:7.65}
		.st12 {fill:#394d54;stroke:none;stroke-width:7.65}
		.st13 {fill:#00aada;stroke:none;stroke-width:7.65}
		.st14 {fill:#24b8eb;stroke:none;stroke-width:7.65}
		.st15 {fill:#008bb8;stroke:none;stroke-width:7.65}
		.st16 {fill:#039bc6;stroke:none;stroke-width:7.65}
		.st17 {fill:#00acd3;stroke:none;stroke-width:7.65}
		.st18 {fill:#20c2ef;stroke:none;stroke-width:7.65}
		.st19 {fill:#d4edf1;stroke:none;stroke-width:7.65}
		.st20 {fill:#bfdbe0;stroke:none;stroke-width:7.65}
		.st21 {fill:none;stroke:none;stroke-width:0.25}
		.st22 {fill:#4672c4;font-family:Calibri;font-size:1.00001em}
		.st23 {font-size:1em}
		.st24 {fill:#ff00ff;fill-opacity:0}
		.st25 {stroke:#c7c8c8;stroke-opacity:0;stroke-width:0.72}
		.st26 {fill:url(#grad3-114)}
		.st27 {stroke:#c8c8c8;stroke-width:0.72}
		.st28 {fill:url(#grad3-114);stroke:#c8c8c8;stroke-width:0.72}
		.st29 {stroke:#4672c4;stroke-linecap:round;stroke-linejoin:round;stroke-width:0.72}
		.st30 {stroke:#c8c8c8;stroke-width:2}
		.st31 {marker-end:url(#mrkr4-142);stroke:#4672c4;stroke-linecap:round;stroke-linejoin:round;stroke-width:1}
		.st32 {fill:#4672c4;fill-opacity:1;stroke:#4672c4;stroke-opacity:1;stroke-width:0.28409090909091}
		.st33 {stroke:#4672c4;stroke-linecap:round;stroke-linejoin:round;stroke-width:1}
		.st34 {marker-start:url(#mrkr4-151);stroke:#4672c4;stroke-linecap:round;stroke-linejoin:round;stroke-width:1}
		.st35 {fill:#ffc000;font-family:Calibri;font-size:1.00001em}
		.st36 {fill:none;fill-rule:evenodd;font-size:12px;overflow:visible;stroke-linecap:square;stroke-miterlimit:3}
	]]>
	</style>

	<defs id="Patterns_And_Gradients">
		<radialGradient id="grad6-5" cx="1" cy="0" r="1.4">
			<stop offset="0" stop-color="#0e90cf" stop-opacity="1"/>
			<stop offset="1" stop-color="#006daa" stop-opacity="1"/>
		</radialGradient>
		<radialGradient id="grad6-9" cx="1" cy="0" r="1.4">
			<stop offset="0" stop-color="#1a447a" stop-opacity="1"/>
			<stop offset="0.27" stop-color="#163e68" stop-opacity="1"/>
			<stop offset="0.72" stop-color="#103651" stop-opacity="1"/>
			<stop offset="1" stop-color="#0e3348" stop-opacity="1"/>
		</radialGradient>
		<radialGradient id="grad6-13" cx="1" cy="0" r="1.4">
			<stop offset="0" stop-color="#49bdea" stop-opacity="1"/>
			<stop offset="0.36" stop-color="#2ea4de" stop-opacity="1"/>
			<stop offset="0.75" stop-color="#178ed3" stop-opacity="1"/>
			<stop offset="1" stop-color="#0e86cf" stop-opacity="1"/>
		</radialGradient>
		<linearGradient id="grad0-22" x1="0" y1="0" x2="1" y2="0" gradientTransform="rotate(-90 0.5 0.5)">
			<stop offset="0" stop-color="#0078d4" stop-opacity="1"/>
			<stop offset="0.16" stop-color="#1380da" stop-opacity="1"/>
			<stop offset="0.53" stop-color="#3c91e5" stop-opacity="1"/>
			<stop offset="0.82" stop-color="#559cec" stop-opacity="1"/>
			<stop offset="1" stop-color="#5ea0ef" stop-opacity="1"/>
		</linearGradient>
		<linearGradient id="grad0-44" x1="0" y1="0" x2="1" y2="0" gradientTransform="rotate(-90 0.5 0.5)">
			<stop offset="0" stop-color="#fea11b" stop-opacity="1"/>
			<stop offset="0.285" stop-color="#fea51a" stop-opacity="1"/>
			<stop offset="0.545" stop-color="#feb018" stop-opacity="1"/>
			<stop offset="0.8" stop-color="#ffc314" stop-opacity="1"/>
			<stop offset="1" stop-color="#ffd70f" stop-opacity="1"/>
		</linearGradient>
		<radialGradient id="grad3-114" cx="0.5" cy="0.5" r="0.73">
			<stop offset="0" stop-color="#a5a5a5" stop-opacity="1"/>
			<stop offset="1" stop-color="#b7b7b7" stop-opacity="1"/>
		</radialGradient>
	</defs>
	<defs id="Markers">
		<g id="lend4">
			<path d="M 2 1 L 0 0 L 2 -1 L 2 1 " style="stroke:none"/>
		</g>
		<marker id="mrkr4-142" class="st32" v:arrowType="4" v:arrowSize="2" v:setback="7.04" refX="-7.04" orient="auto"
				markerUnits="strokeWidth" overflow="visible">
			<use xlink:href="#lend4" transform="scale(-3.52,-3.52) "/>
		</marker>
		<marker id="mrkr4-151" class="st32" v:arrowType="4" v:arrowSize="2" v:setback="6.68" refX="6.68" orient="auto"
				markerUnits="strokeWidth" overflow="visible">
			<use xlink:href="#lend4" transform="scale(3.52) "/>
		</marker>
	</defs>
	<g v:mID="0" v:index="1" v:groupContext="foregroundPage">
		<v:userDefs>
			<v:ud v:nameU="msvThemeOrder" v:val="VT0(0):26"/>
		</v:userDefs>
		<title>Page-1</title>
		<v:pageProperties v:drawingScale="0.0393701" v:pageScale="0.0393701" v:drawingUnits="24" v:shadowOffsetX="8.50394"
				v:shadowOffsetY="-8.50394"/>
		<v:layer v:name="Connector" v:index="0"/>
		<g id="group1-1" transform="translate(408.923,-243.421)" v:mID="1" v:groupContext="group">
			<title>Azure Machine Learning #1</title>
			<g id="shape2-2" v:mID="2" v:groupContext="shape" transform="translate(24.367,-44.3622)">
				<title>rect15015</title>
				<rect x="0" y="568.623" width="17.7094" height="26.6528" class="st1"/>
			</g>
			<g id="shape3-6" v:mID="3" v:groupContext="shape">
				<title>polygon15017</title>
				<path d="M0 577.56 L66.58 577.56 L62.18 595.28 L4.39 595.28 L0 577.56 Z" class="st2"/>
			</g>
			<g id="shape4-10" v:mID="4" v:groupContext="shape">
				<title>polygon15019</title>
				<path d="M24.37 550.91 L42.21 550.91 L4.39 595.28 L0 577.56 L24.37 550.91 Z" class="st3"/>
			</g>
			<g id="shape5-14" v:mID="5" v:groupContext="shape" transform="translate(35.5519,0)">
				<title>polygon15021</title>
				<path d="M11.05 555.31 L31.02 577.56 L26.63 595.28 L0 568.62 L11.05 555.31 Z" class="st1"/>
			</g>
		</g>
		<g id="group6-17" transform="translate(568.489,-320.017)" v:mID="6" v:groupContext="group">
			<title>PostgreSQL</title>
			<g id="group7-18" v:mID="7" v:groupContext="group">
				<title>Icon-databases-131</title>
				<g id="shape8-19" v:mID="8" v:groupContext="shape">
					<title>Sheet.8</title>
					<path d="M18.28 560.02 C8.19 560.02 0 557.17 0 553.41 L0 588.66 C0 592.28 8.04 595.22 18.03 595.28 L18.28 595.28
								 C28.38 595.28 36.56 592.42 36.56 588.66 L36.56 553.41 C36.56 557.06 28.38 560.02 18.28 560.02 Z"
							class="st4"/>
				</g>
				<g id="shape9-23" v:mID="9" v:groupContext="shape" transform="translate(0,-35.2526)">
					<title>Sheet.9</title>
					<path d="M36.56 588.66 C36.56 592.31 28.38 595.28 18.28 595.28 C8.19 595.28 0 592.42 0 588.66 C0 584.89 8.19
								 582.04 18.28 582.04 C28.38 582.04 36.56 584.89 36.56 588.66 Z" class="st5"/>
				</g>
				<g id="shape10-25" v:mID="10" v:groupContext="shape" transform="translate(4.2497,-38.1903)">
					<title>Sheet.10</title>
					<path d="M28.04 591.05 C28.04 593.39 21.76 595.28 14.03 595.28 C6.3 595.28 0 593.39 0 591.08 C0 588.77 6.27 586.86
								 14.03 586.86 C21.79 586.86 28.04 588.74 28.04 591.05 Z" class="st6"/>
				</g>
				<g id="shape11-27" v:mID="11" v:groupContext="shape" transform="translate(7.1589,-38.1903)">
					<title>Sheet.11</title>
					<path d="M11.12 592.11 A33.2275 33.2275 -180 0 0 -0 593.74 A32.8853 32.8853 -180 0 0 11.12 595.28 A32.7142 32.7142
								 -180 0 0 22.22 593.62 A34.0262 34.0262 -180 0 0 11.12 592.11 Z" class="st7"/>
				</g>
				<g id="shape12-29" v:mID="12" v:groupContext="shape" transform="translate(5.44761,-5.04831)">
					<title>Sheet.12</title>
					<path d="M21.39 576.08 L21.39 577.28 A14.603 14.603 -180 0 0 21.16 579.08 C21.16 579.42 21.16 579.93 21.31 580.39
								 C21.45 580.84 21.31 581.16 21.31 581.41 A4.79161 4.79161 0 0 1 20.59 583.87 A1.22642 1.22642 -180
								 0 0 20.59 584.07 L20.88 584.41 A30.0902 30.0902 -180 0 0 23.9 577.62 C24.7 574.91 24.79 572.97 24.16
								 572.14 A7.35855 7.35855 -180 0 0 16.51 569.69 A9.38357 9.38357 0 0 1 19.11 571.6 A6.5029 6.5029
								 0 0 1 21.39 576.08 ZM20.51 576.31 A3.27997 3.27997 -180 0 0 18.25 576.57 C17.43 577.08 17.68 578.13
								 18.25 579.42 A22.1612 22.1612 -180 0 0 19.25 581.84 L19.51 582.3 C19.65 582.53 19.74 582.73 19.82
								 582.87 L20.05 583.24 A3.65075 3.65075 -180 0 0 20.56 581.39 A8.15715 8.15715 -180 0 0 20.56 580.44
								 C20.56 579.96 20.56 579.42 20.42 579.05 A17.3981 17.3981 0 0 1 20.65 577.08 A2.20471 2.20471 0 0
								 1 20.62 576.22 L20.51 576.31 ZM19.65 577.48 A1.14086 1.14086 0 0 1 19.14 577.76 a0.94121 0.94121
								 0 0 1 -0.399301 -1.13687E-13 a0.655995 0.655995 0 0 1 -0.199651 -0.541909 C18.54 577.02 18.85 576.85
								 19.22 576.79 L19.77 576.79 C19.77 576.79 20.02 576.79 20.02 577.02 a0.57043 0.57043 0 0 1 -0.256694
								 0.37078 L19.65 577.48 ZM6.27 580.02 L6.27 579.53 A2.85215 2.85215 -180 0 0 6.27 579.05 A15.8294
								 15.8294 0 0 1 6.27 576.19 A14.8882 14.8882 0 0 1 7.13 573.06 A6.87368 6.87368 0 0 1 8.78 570.38
								 A13.6333 13.6333 -180 0 0 4.93 569.81 A5.33352 5.33352 -180 0 0 1.8 570.66 A5.7043 5.7043 -180 0
								 0 -0 575.85 A34.9959 34.9959 -180 0 0 1.43 582.24 C2.4 585.49 3.51 587.49 4.48 587.8 C4.91 587.95
								 5.36 587.8 5.82 587.2 C6.62 586.23 7.36 585.41 7.79 584.92 A5.36204 5.36204 0 0 1 6.39 579.93 L6.27
								 580.02 ZM7.02 581.16 A6.21769 6.21769 -180 0 0 7.19 582.75 A4.27823 4.27823 -180 0 0 7.93 584.01
								 A3.0518 3.0518 -180 0 0 8.93 584.72 A3.10884 3.10884 -180 0 0 10.04 584.95 C10.04 584.47 10.44 583.87
								 10.7 583.24 A12.4069 12.4069 -180 0 0 11.29 581.56 A18.8527 18.8527 -180 0 0 11.29 578.39 C11.29
								 578.13 11.29 577.85 11.12 577.54 A1.28347 1.28347 -180 0 0 10.78 576.77 A1.88242 1.88242 -180 0
								 0 9.98 576.31 L9.41 576.31 A4.44935 4.44935 -180 0 0 8.04 576.71 A5.7043 5.7043 -180 0 0 7.13 577.25
								 L7.13 579.3 A2.45285 2.45285 0 0 1 7.13 579.73 L7.13 580.84 L7.02 581.16 ZM8.9 577.34 A1.31199 1.31199
								 0 0 1 9.7 577.34 A1.71129 1.71129 0 0 1 10.24 577.51 C10.5 577.51 10.52 577.82 10.5 577.91 A1.0553
								 1.0553 0 0 1 10.15 578.28 a0.855645 0.855645 0 0 1 -0.171129 -0.114086 a0.969731 0.969731 0 0 1
								 -0.798602 -0.798602 L8.9 577.34 ZM11.01 585.89 a0.655995 0.655995 -180 0 0 -0.37078 0.171129 L10.24
								 586.55 C9.75 587.15 9.55 587.35 8.16 587.63 A1.48312 1.48312 -180 0 0 7.42 587.92 A1.65425 1.65425
								 -180 0 0 8.1 588.23 A3.36554 3.36554 -180 0 0 10.15 588.23 A4.84866 4.84866 -180 0 0 11.27 587.49
								 A1.73981 1.73981 -180 0 0 11.84 586.61 A1.02677 1.02677 -180 0 0 11.55 585.81 a0.427823 0.427823
								 -180 0 0 -0.427823 -0.057043 L11.01 585.89 ZM24.16 585.89 A4.649 4.649 0 0 1 20.93 585.89 a0.627473
								 0.627473 -180 0 0 -0.399301 0 a0.855645 0.855645 -180 0 0 -0.484866 0.399301 A3.10884 3.10884 -180
								 0 0 20.05 587.18 A5.13387 5.13387 -180 0 0 23.19 586.89 A3.87892 3.87892 -180 0 0 24.56 585.92 L24.16
								 585.89 ZM17.31 579.79 C16.91 578.62 16.34 576.94 17.83 575.91 A3.8504 3.8504 0 0 1 20.36 575.48
								 A9.06984 9.06984 -180 0 0 18.54 572.2 L18.25 571.92 L18.08 571.75 a0.969731 0.969731 -180 0 0 -0.171129
								 -0.171129 A6.67403 6.67403 -180 0 0 16 570.38 A7.50115 7.50115 -180 0 0 12.83 569.75 A4.33527 4.33527
								 -180 0 0 10.84 570.06 A5.04831 5.04831 -180 0 0 9.98 570.38 A5.98952 5.98952 -180 0 0 7.87 573.23
								 A16.6566 16.6566 -180 0 0 7.27 576.08 A4.73457 4.73457 0 0 1 10.13 575.42 A2.39581 2.39581 0 0 1
								 12.32 578.02 A20.7066 20.7066 0 0 1 12.32 581.64 A11.0378 11.0378 0 0 1 11.67 583.44 C11.49 583.92
								 11.27 584.44 11.15 584.84 A1.42608 1.42608 0 0 1 12.24 585.24 A1.88242 1.88242 0 0 1 12.78 586.75
								 L12.83 586.75 L12.83 587.43 A18.6816 18.6816 -180 0 0 13.52 594.39 A1.54016 1.54016 -180 0 0 14.2
								 594.99 A1.71129 1.71129 -180 0 0 15.09 595.28 A3.7078 3.7078 -180 0 0 17.94 594.31 A2.99476 2.99476
								 -180 0 0 18.77 592.42 C18.97 591.14 19.39 587.57 19.45 586.72 A2.05355 2.05355 0 0 1 19.71 585.46
								 A1.79685 1.79685 0 0 1 20.48 584.78 A15.2875 15.2875 0 0 1 17.43 579.62 L17.31 579.79 Z"
							class="st8"/>
				</g>
			</g>
		</g>
		<g id="group13-31" transform="translate(406.082,-388.089)" v:mID="13" v:groupContext="group">
			<title>Function App</title>
			<g id="group14-32" v:mID="14" v:groupContext="group">
				<title>Sheet.14</title>
				<g id="shape15-33" v:mID="15" v:groupContext="shape" transform="translate(0.0093539,-12.3111)">
					<title>Sheet.15</title>
					<path d="M19.04 592.91 L16.95 595.01 A1.04817 1.04817 0 0 1 15.55 595.01 L0.52 579.98 A2.12428 2.12428 0 0 1
								 0.52 577.19 L2.27 575.09 L19.04 591.86 a0.65685 0.65685 0 0 1 1.77636E-14 1.04817 Z" class="st6"/>
				</g>
				<g id="shape16-35" v:mID="16" v:groupContext="shape" transform="translate(0,-25.8547)">
					<title>Sheet.16</title>
					<path d="M16.61 575.71 L18.7 577.81 A1.04817 1.04817 0 0 1 18.7 579.2 L2.63 595.28 L0.53 593.18 A2.09633 2.09633
								 0 0 1 0.53 590.38 L15.56 575.36 A1.28226 1.28226 0 0 1 16.61 575.71 Z" class="st9"/>
				</g>
				<g id="shape17-37" v:mID="17" v:groupContext="shape" transform="translate(43.2417,-11.9617)">
					<title>Sheet.17</title>
					<path d="M17.04 574.74 L19.13 576.84 A2.12428 2.12428 0 0 1 19.13 579.64 L3.76 595.01 A1.04817 1.04817 0 0 1
								 2.36 595.01 L0.27 592.91 A1.04817 1.04817 0 0 1 0.27 591.51 L17.04 574.74 Z" class="st6"/>
				</g>
				<g id="shape18-39" v:mID="18" v:groupContext="shape" transform="translate(43.2417,-25.8547)">
					<title>Sheet.18</title>
					<path d="M18.78 593.18 L16.69 595.28 L0.27 578.85 A1.04817 1.04817 0 0 1 0.27 577.46 L2.36 575.36 A1.04817 1.04817
								 0 0 1 3.76 575.36 L18.78 590.38 A2.09633 2.09633 0 0 1 18.78 593.18 Z" class="st9"/>
				</g>
				<g id="shape19-41" v:mID="19" v:groupContext="shape" transform="translate(15.5575,0)">
					<title>Sheet.19</title>
					<path d="M13.28 569.42 L0.7 569.42 a0.751185 0.751185 0 0 1 -0.698777 -0.698777 L0 568.37 L15.02 538.67 C15.37
								 538.67 15.37 538.33 15.72 538.33 L30.4 538.33 a0.751185 0.751185 0 0 1 0.698777 0.698777 L31.1 539.37
								 L13.63 562.78 L30.75 562.78 a0.751185 0.751185 0 0 1 0.698777 0.698777 a0.349388 0.349388 0 0 1
								 -0.349388 0.349388 L2.45 593.53 C2.1 593.53 0.35 595.28 1.05 592.83 L13.28 569.42 Z" class="st10"/>
				</g>
			</g>
		</g>
		<g id="group20-45" transform="translate(192.756,-307.437)" v:mID="20" v:groupContext="group">
			<v:userDefs>
				<v:ud v:nameU="visAltText" v:val="VT4(Aplikacja sterująca PYTHON)"/>
			</v:userDefs>
			<title>Docker</title>
			<g id="shape21-46" v:mID="21" v:groupContext="shape" transform="translate(0.0674137,0)">
				<title>docker_4_</title>
				<path d="M73.39 589.53 C75.62 587.62 77.85 585.7 80.08 583.78 C80.84 583.12 81.67 582.44 82.43 581.75 C81.82 580.99
							 80.81 580.44 79.95 580.11 C78.22 579.45 76.51 579.67 74.92 580.59 C72.83 581.79 71.95 583.71 72.03 586.09
							 C72.06 587.03 72.31 587.93 72.81 588.73 C72.98 589.01 73.18 589.28 73.39 589.53 ZM75.97 591.34 C77.07
							 591.72 78.31 591.67 79.44 591.47 C80.01 591.23 81.48 590.59 82.02 590.68 L82.1 590.7 L82.18 590.74 C82.51
							 590.9 82.82 591.12 82.99 591.46 C83.39 592.24 83.2 593.03 82.42 593.48 L82.17 593.63 C79.32 595.28 76.28
							 595.05 73.44 593.51 C72.08 592.77 71.04 591.68 70.27 590.35 L70.09 590.04 C68.26 586.87 68.51 583.54
							 70.57 580.52 C71.29 579.48 72.22 578.67 73.31 578.04 L73.72 577.81 C76.41 576.26 79.29 576.36 82.05
							 577.72 C83.53 578.45 84.73 579.55 85.56 580.98 L85.71 581.24 C86.31 582.28 85.53 583.19 84.73 583.81
							 C83.79 584.53 82.85 585.4 81.95 586.17 C79.96 587.89 77.97 589.62 75.97 591.34 ZM97.34 576.92 L97.64
							 576.92 C98.54 576.92 99.15 577.53 99.15 578.42 C99.15 579.67 97.95 579.99 96.93 579.99 C95.57 579.99
							 94.29 580.8 93.36 581.72 C92.19 582.87 91.69 584.33 91.69 585.94 L91.69 593.22 C91.69 594.05 91.17 594.72
							 90.3 594.72 L90.06 594.72 C89.2 594.72 88.68 594.05 88.68 593.22 L88.68 585.52 C88.68 582.57 90.12 580.15
							 92.52 578.46 C93.95 577.45 95.59 576.92 97.34 576.92 ZM59.87 582.08 C61.03 580.91 62.21 579.75 63.39
							 578.6 C63.72 578.28 64.97 576.92 65.47 576.92 L66 576.92 L66.06 576.93 C66.75 577.07 67.26 577.51 67.26
							 578.24 L67.26 578.54 C67.26 579.04 66.67 579.63 66.35 579.97 C65.66 580.71 64.93 581.41 64.22 582.13
							 L60.59 585.82 C62.16 587.38 63.72 588.95 65.27 590.53 C65.7 590.97 66.13 591.41 66.55 591.85 C66.7 592.01
							 66.92 592.2 67.05 592.42 C67.18 592.63 67.26 592.86 67.26 593.1 L67.26 593.41 L67.25 593.48 C67.08 594.17
							 66.64 594.72 65.88 594.72 L65.64 594.72 C65.14 594.72 64.58 594.16 64.24 593.84 C63.54 593.18 62.86
							 592.48 62.17 591.81 L59.86 589.54 L59.86 593.16 C59.86 593.99 59.34 594.67 58.48 594.67 L58.24 594.67
							 C57.38 594.67 56.86 593.99 56.86 593.16 L56.86 572.75 C56.86 571.92 57.38 571.25 58.24 571.25 L58.48
							 571.25 C59.34 571.25 59.86 571.92 59.86 572.75 L59.86 582.08 L59.87 582.08 ZM50.12 580.05 C49.66 579.84
							 48.81 579.76 48.32 579.75 C45.81 579.65 43.99 581.07 42.92 583.28 C42.56 584.05 42.39 584.86 42.39 585.7
							 C42.39 588.28 43.74 590.08 46.04 591.18 C46.88 591.58 47.96 591.66 48.88 591.66 C49.69 591.66 50.83
							 591.16 51.54 590.82 L51.67 590.76 L52.23 590.76 L52.29 590.78 C52.97 590.92 53.49 591.35 53.49 592.09
							 L53.49 592.39 C53.49 594.22 50.14 594.64 48.86 594.72 C44.36 595.04 40.99 592.56 39.71 588.27 C39.48
							 587.52 39.38 586.78 39.38 586 L39.38 585.4 C39.38 582.14 41 579.56 43.8 577.9 C45.1 577.13 46.53 576.74
							 48.05 576.74 L48.64 576.74 C50.24 576.74 51.72 577.19 53.04 578.1 L53.15 578.17 L53.22 578.28 C53.36
							 578.52 53.49 578.79 53.49 579.08 L53.49 579.37 C53.49 580.14 52.91 580.56 52.22 580.69 L52.16 580.7
							 L51.98 580.7 C51.53 580.7 50.52 580.24 50.12 580.05 ZM22.7 585.76 C22.7 588.05 23.82 589.73 25.75 590.91
							 C26.66 591.47 27.65 591.72 28.71 591.72 C30.97 591.72 32.64 590.57 33.8 588.67 C34.36 587.76 34.61 586.76
							 34.61 585.7 C34.61 583.57 33.58 581.95 31.83 580.78 C30.87 580.13 29.81 579.81 28.65 579.81 C26.13 579.81
							 24.32 581.08 23.23 583.34 C22.86 584.1 22.7 584.92 22.7 585.76 ZM28.35 576.8 L28.77 576.8 C32.26 576.8
							 34.91 578.49 36.58 581.53 C37.26 582.75 37.61 584.07 37.61 585.46 L37.61 586.06 C37.61 589.32 36.01
							 591.92 33.2 593.57 C31.9 594.33 30.46 594.72 28.95 594.72 L28.35 594.72 C25.09 594.72 22.5 593.11 20.85
							 590.31 C20.08 589 19.69 587.57 19.69 586.06 L19.69 585.46 C19.69 582.2 21.31 579.62 24.1 577.96 C25.41
							 577.18 26.84 576.8 28.35 576.8 ZM3.01 585.76 C3.01 588.12 4.15 589.89 6.21 591.01 C7.05 591.47 7.95
							 591.72 8.9 591.72 C11.21 591.72 12.93 590.63 14.11 588.67 C14.66 587.76 14.92 586.76 14.92 585.7 C14.92
							 583.66 13.95 582.07 12.3 580.88 C11.31 580.17 10.18 579.81 8.96 579.81 C6.44 579.81 4.63 581.08 3.54
							 583.34 C3.17 584.1 3.01 584.92 3.01 585.76 ZM14.92 579.04 L14.92 572.69 C14.92 571.86 15.44 571.19 16.3
							 571.19 L16.54 571.19 C17.41 571.19 17.92 571.86 17.92 572.69 L17.92 586.06 C17.92 589.32 16.31 591.91
							 13.51 593.57 C12.21 594.33 10.77 594.72 9.26 594.72 L8.66 594.72 C5.4 594.72 2.81 593.11 1.16 590.31
							 C0.39 589.01 0 587.57 0 586.06 L0 585.47 C0 582.21 1.61 579.61 4.41 577.96 C5.72 577.19 7.15 576.8 8.66
							 576.8 L9.26 576.8 C11.47 576.8 13.34 577.65 14.92 579.04 Z" class="st11"/>
			</g>
			<g id="shape22-48" v:mID="22" v:groupContext="shape" transform="translate(11.8343,-27.5493)">
				<title>outline_7_</title>
				<path d="M45.4 556.83 L54.27 556.83 L54.27 565.9 L58.76 565.9 C60.83 565.9 62.96 565.53 64.92 564.86 C65.88 564.53
							 66.97 564.08 67.92 563.51 C66.66 561.87 66.03 559.81 65.84 557.77 C65.58 555.01 66.14 551.4 68.01 549.23
							 L68.95 548.16 L70.06 549.05 C72.86 551.3 75.21 554.44 75.62 558.02 C78.99 557.03 82.95 557.26 85.92
							 558.98 L87.14 559.68 L86.5 560.93 C83.98 565.83 78.73 567.35 73.6 567.08 C65.92 586.22 49.19 595.28
							 28.92 595.28 C18.44 595.28 8.83 591.36 3.35 582.06 L3.26 581.91 L2.47 580.29 C0.62 576.2 0 571.72 0.42
							 567.24 L0.54 565.9 L8.13 565.9 L8.13 556.83 L17 556.83 L17 547.95 L34.75 547.95 L34.75 539.08 L45.39
							 539.08 L45.39 556.83 L45.4 556.83 Z" class="st12"/>
			</g>
			<g id="group23-50" transform="translate(13.2703,-29.0286)" v:mID="23" v:groupContext="group">
				<title>body_colors_8_</title>
				<g id="shape24-51" v:mID="24" v:groupContext="shape">
					<title>Sheet.24</title>
					<path d="M72.71 561.66 C73.3 557.04 69.84 553.41 67.69 551.68 C65.22 554.54 64.84 562.03 68.72 565.19 C66.55
								 567.11 61.99 568.85 57.32 568.85 L0.45 568.85 C0 573.73 0.86 578.22 2.81 582.07 L3.46 583.25 C3.87
								 583.94 4.32 584.61 4.8 585.26 C4.8 585.26 4.8 585.26 4.8 585.26 C7.14 585.41 9.29 585.46 11.26 585.42
								 C11.26 585.42 11.26 585.42 11.27 585.42 C15.14 585.33 18.3 584.88 20.7 584.05 C21.06 583.92 21.45
								 584.11 21.57 584.47 C21.69 584.82 21.5 585.21 21.15 585.34 C20.83 585.45 20.5 585.55 20.15 585.65
								 C20.15 585.65 20.15 585.65 20.15 585.65 C18.26 586.19 16.24 586.55 13.63 586.71 C13.79 586.71 13.47
								 586.73 13.47 586.73 C13.38 586.74 13.27 586.75 13.18 586.76 C12.15 586.81 11.04 586.83 9.91 586.83
								 C8.67 586.83 7.45 586.8 6.08 586.73 L6.05 586.76 C10.78 592.08 18.19 595.28 27.48 595.28 C47.13
								 595.28 63.8 586.56 71.18 567 C76.42 567.54 81.45 566.21 83.74 561.74 C80.1 559.63 75.41 560.3 72.71
								 561.66 Z" class="st13"/>
				</g>
				<g id="shape25-53" v:mID="25" v:groupContext="shape" transform="translate(3.58946,-5.14761)">
					<title>Sheet.25</title>
					<path d="M69.12 566.81 C69.71 562.18 66.25 558.55 64.11 556.83 C61.63 559.69 61.25 567.18 65.13 570.34 C62.96
								 572.26 58.4 574 53.73 574 L0.23 574 C0 581.47 2.77 587.14 7.67 590.57 C7.67 590.57 7.67 590.57 7.68
								 590.57 C11.55 590.48 14.71 590.02 17.11 589.19 C17.47 589.07 17.86 589.26 17.98 589.62 C18.1 589.97
								 17.91 590.36 17.56 590.48 C17.24 590.59 16.91 590.7 16.56 590.8 C16.56 590.8 16.56 590.8 16.56 590.8
								 C14.67 591.33 12.48 591.74 9.87 591.9 C9.87 591.9 9.8 591.84 9.8 591.85 C16.49 595.28 26.19 595.26
								 37.31 590.99 C49.78 586.2 61.38 577.08 69.47 566.64 C69.35 566.69 69.23 566.75 69.12 566.81 Z"
							class="st14"/>
				</g>
				<g id="shape26-55" v:mID="26" v:groupContext="shape" transform="translate(0.560933,0)">
					<title>Sheet.26</title>
					<path d="M0 574.78 C0.35 577.39 1.12 579.84 2.25 582.06 L2.9 583.25 C3.31 583.94 3.75 584.61 4.24 585.26 C6.58
								 585.41 8.73 585.46 10.7 585.42 C14.58 585.33 17.74 584.87 20.14 584.04 C20.5 583.92 20.88 584.11
								 21.01 584.47 C21.13 584.82 20.94 585.21 20.59 585.34 C20.27 585.45 19.93 585.55 19.59 585.65 C19.59
								 585.65 19.59 585.65 19.59 585.65 C17.7 586.18 15.52 586.57 12.91 586.73 C12.82 586.74 12.66 586.74
								 12.57 586.74 C11.55 586.8 10.45 586.84 9.31 586.84 C8.07 586.84 6.8 586.81 5.44 586.74 C10.18 592.07
								 17.63 595.28 26.92 595.28 C43.74 595.28 58.38 588.89 66.88 574.78 L0 574.78 L0 574.78 Z"
							class="st15"/>
				</g>
				<g id="shape27-57" v:mID="27" v:groupContext="shape" transform="translate(4.33356,-5.11199)">
					<title>Sheet.27</title>
					<path d="M0 579.89 C1.01 584.48 3.42 588.08 6.93 590.53 C10.81 590.44 13.97 589.99 16.37 589.16 C16.72 589.03
								 17.11 589.22 17.24 589.58 C17.36 589.93 17.17 590.32 16.81 590.45 C16.49 590.56 16.16 590.66 15.82
								 590.76 C15.82 590.76 15.82 590.76 15.82 590.76 C13.93 591.3 11.7 591.68 9.09 591.85 C15.78 595.28
								 25.45 595.23 36.56 590.96 C43.29 588.37 49.76 584.53 55.57 579.89 L0 579.89 L0 579.89 Z"
							class="st16"/>
				</g>
			</g>
			<g id="shape28-59" v:mID="28" v:groupContext="shape" transform="translate(16.959,-37.5036)">
				<title>Sheet.28</title>
				<path d="M6.2 595.28 C7.33 595.28 8.41 595.25 9.44 595.19 C9.53 595.18 9.61 595.18 9.7 595.17 C9.71 595.17 9.71 595.17
							 9.71 595.17 C12.32 595.01 14.58 594.66 16.46 594.12 C16.46 594.12 16.46 594.12 16.46 594.12 C16.81 594.03
							 17.14 593.92 17.46 593.81 C17.81 593.69 18 593.3 17.88 592.94 C17.76 592.59 17.37 592.4 17.01 592.52
							 C14.61 593.35 11.45 593.81 7.58 593.89 C7.58 593.89 7.58 593.89 7.58 593.89 C5.6 593.94 3.45 593.89
							 1.11 593.74 C1.11 593.74 1.11 593.74 1.11 593.74 C0.99 593.73 0.87 593.72 0.75 593.71 C0.38 593.69 0.05
							 593.97 0.03 594.35 C0 594.72 0.28 595.05 0.66 595.07 C1.14 595.11 1.61 595.14 2.07 595.16 C2.14 595.16
							 2.21 595.17 2.29 595.17 C3.65 595.24 4.96 595.28 6.2 595.28 Z" class="st12"/>
			</g>
			<g id="group29-61" transform="translate(21.4426,-56.8297)" v:mID="29" v:groupContext="group">
				<title>Containers_8_</title>
				<g id="shape30-62" v:mID="30" v:groupContext="shape">
					<title>Sheet.30</title>
					<path d="M6.44 588.23 L7.05 588.23 L7.05 594.63 L6.44 594.63 L6.44 588.23 ZM5.28 588.23 L5.91 588.23 L5.91 594.63
								 L5.28 594.63 L5.28 588.23 ZM4.11 588.23 L4.74 588.23 L4.74 594.63 L4.11 594.63 L4.11 588.23 ZM2.95
								 588.23 L3.58 588.23 L3.58 594.63 L2.95 594.63 L2.95 588.23 ZM1.78 588.23 L2.41 588.23 L2.41 594.63
								 L1.78 594.63 L1.78 588.23 ZM0.64 588.23 L1.25 588.23 L1.25 594.63 L0.64 594.63 L0.64 588.23 ZM0
								 587.59 L7.69 587.59 L7.69 595.28 L0 595.28 L0 587.59 Z" class="st17"/>
				</g>
				<g id="shape31-64" v:mID="31" v:groupContext="shape" transform="translate(8.8719,-8.87317)">
					<title>Sheet.31</title>
					<path d="M6.44 588.23 L7.05 588.23 L7.05 594.63 L6.44 594.63 L6.44 588.23 ZM5.28 588.23 L5.91 588.23 L5.91 594.63
								 L5.28 594.63 L5.28 588.23 ZM4.11 588.23 L4.74 588.23 L4.74 594.63 L4.11 594.63 L4.11 588.23 ZM2.95
								 588.23 L3.58 588.23 L3.58 594.63 L2.95 594.63 L2.95 588.23 ZM1.78 588.23 L2.41 588.23 L2.41 594.63
								 L1.78 594.63 L1.78 588.23 ZM0.64 588.23 L1.25 588.23 L1.25 594.63 L0.64 594.63 L0.64 588.23 L0.64
								 588.23 ZM0 587.59 L7.69 587.59 L7.69 595.28 L0 595.28 L0 587.59 Z" class="st17"/>
				</g>
				<g id="shape32-66" v:mID="32" v:groupContext="shape" transform="translate(8.8719,0)">
					<title>Sheet.32</title>
					<path d="M6.44 588.23 L7.05 588.23 L7.05 594.63 L6.44 594.63 L6.44 588.23 ZM5.28 588.23 L5.91 588.23 L5.91 594.63
								 L5.28 594.63 L5.28 588.23 ZM4.11 588.23 L4.74 588.23 L4.74 594.63 L4.11 594.63 L4.11 588.23 ZM2.95
								 588.23 L3.58 588.23 L3.58 594.63 L2.95 594.63 L2.95 588.23 ZM1.78 588.23 L2.41 588.23 L2.41 594.63
								 L1.78 594.63 L1.78 588.23 ZM0.64 588.23 L1.25 588.23 L1.25 594.63 L0.64 594.63 L0.64 588.23 L0.64
								 588.23 ZM0 587.59 L7.69 587.59 L7.69 595.28 L0 595.28 L0 587.59 Z" class="st18"/>
				</g>
				<g id="shape33-68" v:mID="33" v:groupContext="shape" transform="translate(17.7463,0)">
					<title>Sheet.33</title>
					<path d="M6.44 588.23 L7.05 588.23 L7.05 594.63 L6.44 594.63 L6.44 588.23 ZM5.28 588.23 L5.91 588.23 L5.91 594.63
								 L5.28 594.63 L5.28 588.23 ZM4.11 588.23 L4.74 588.23 L4.74 594.63 L4.11 594.63 L4.11 588.23 ZM2.95
								 588.23 L3.58 588.23 L3.58 594.63 L2.95 594.63 L2.95 588.23 ZM1.78 588.23 L2.41 588.23 L2.41 594.63
								 L1.78 594.63 L1.78 588.23 ZM0.64 588.23 L1.25 588.23 L1.25 594.63 L0.64 594.63 L0.64 588.23 ZM0
								 587.59 L7.69 587.59 L7.69 595.28 L0 595.28 L0 587.59 Z" class="st17"/>
				</g>
				<g id="shape34-70" v:mID="34" v:groupContext="shape" transform="translate(17.7463,-8.87317)">
					<title>Sheet.34</title>
					<path d="M6.44 588.23 L7.05 588.23 L7.05 594.63 L6.44 594.63 L6.44 588.23 ZM5.28 588.23 L5.91 588.23 L5.91 594.63
								 L5.28 594.63 L5.28 588.23 ZM4.11 588.23 L4.74 588.23 L4.74 594.63 L4.11 594.63 L4.11 588.23 ZM2.95
								 588.23 L3.58 588.23 L3.58 594.63 L2.95 594.63 L2.95 588.23 ZM1.78 588.23 L2.41 588.23 L2.41 594.63
								 L1.78 594.63 L1.78 588.23 ZM0.64 588.23 L1.25 588.23 L1.25 594.63 L0.64 594.63 L0.64 588.23 ZM0
								 587.59 L7.69 587.59 L7.69 595.28 L0 595.28 L0 587.59 Z" class="st18"/>
				</g>
				<g id="shape35-72" v:mID="35" v:groupContext="shape" transform="translate(26.6182,0)">
					<title>Sheet.35</title>
					<path d="M6.44 588.23 L7.05 588.23 L7.05 594.63 L6.44 594.63 L6.44 588.23 ZM5.28 588.23 L5.91 588.23 L5.91 594.63
								 L5.28 594.63 L5.28 588.23 ZM4.11 588.23 L4.74 588.23 L4.74 594.63 L4.11 594.63 L4.11 588.23 ZM2.95
								 588.23 L3.58 588.23 L3.58 594.63 L2.95 594.63 L2.95 588.23 ZM1.78 588.23 L2.41 588.23 L2.41 594.63
								 L1.78 594.63 L1.78 588.23 ZM0.64 588.23 L1.25 588.23 L1.25 594.63 L0.64 594.63 L0.64 588.23 ZM0
								 587.59 L7.69 587.59 L7.69 595.28 L0 595.28 L0 587.59 Z" class="st18"/>
				</g>
				<g id="shape36-74" v:mID="36" v:groupContext="shape" transform="translate(26.6182,-8.87317)">
					<title>Sheet.36</title>
					<path d="M6.44 588.23 L7.05 588.23 L7.05 594.63 L6.44 594.63 L6.44 588.23 ZM5.28 588.23 L5.91 588.23 L5.91 594.63
								 L5.28 594.63 L5.28 588.23 ZM4.11 588.23 L4.74 588.23 L4.74 594.63 L4.11 594.63 L4.11 588.23 ZM2.95
								 588.23 L3.58 588.23 L3.58 594.63 L2.95 594.63 L2.95 588.23 ZM1.78 588.23 L2.41 588.23 L2.41 594.63
								 L1.78 594.63 L1.78 588.23 ZM0.64 588.23 L1.25 588.23 L1.25 594.63 L0.64 594.63 L0.64 588.23 ZM0
								 587.59 L7.69 587.59 L7.69 595.28 L0 595.28 L0 587.59 Z" class="st17"/>
				</g>
				<g id="shape37-76" v:mID="37" v:groupContext="shape" transform="translate(26.6182,-17.7463)">
					<title>Sheet.37</title>
					<path d="M6.44 588.23 L7.05 588.23 L7.05 594.63 L6.44 594.63 L6.44 588.23 ZM5.28 588.23 L5.91 588.23 L5.91 594.63
								 L5.28 594.63 L5.28 588.23 ZM4.11 588.23 L4.74 588.23 L4.74 594.63 L4.11 594.63 L4.11 588.23 ZM2.95
								 588.23 L3.58 588.23 L3.58 594.63 L2.95 594.63 L2.95 588.23 ZM1.78 588.23 L2.41 588.23 L2.41 594.63
								 L1.78 594.63 L1.78 588.23 ZM0.64 588.23 L1.25 588.23 L1.25 594.63 L0.64 594.63 L0.64 588.23 ZM0
								 587.59 L7.69 587.59 L7.69 595.28 L0 595.28 L0 587.59 Z" class="st18"/>
				</g>
				<g id="shape38-78" v:mID="38" v:groupContext="shape" transform="translate(35.4914,0)">
					<title>Sheet.38</title>
					<path d="M6.44 588.23 L7.05 588.23 L7.05 594.63 L6.44 594.63 L6.44 588.23 ZM5.28 588.23 L5.91 588.23 L5.91 594.63
								 L5.28 594.63 L5.28 588.23 ZM4.11 588.23 L4.74 588.23 L4.74 594.63 L4.11 594.63 L4.11 588.23 ZM2.95
								 588.23 L3.58 588.23 L3.58 594.63 L2.95 594.63 L2.95 588.23 ZM1.78 588.23 L2.41 588.23 L2.41 594.63
								 L1.78 594.63 L1.78 588.23 ZM0.64 588.23 L1.25 588.23 L1.25 594.63 L0.64 594.63 L0.64 588.23 ZM0
								 587.59 L7.69 587.59 L7.69 595.28 L0 595.28 L0 587.59 Z" class="st17"/>
				</g>
			</g>
			<g id="shape39-80" v:mID="39" v:groupContext="shape" transform="translate(35.4024,-40.12)">
				<title>Sheet.39</title>
				<path d="M2.12 591.03 C3.29 591.03 4.24 591.98 4.24 593.15 C4.24 594.33 3.29 595.28 2.12 595.28 C0.95 595.28 0 594.33
							 0 593.15 C0 591.98 0.95 591.03 2.12 591.03 Z" class="st19"/>
			</g>
			<g id="shape40-82" v:mID="40" v:groupContext="shape" transform="translate(36.004,-40.723)">
				<title>Sheet.40</title>
				<path d="M1.52 592.24 C1.71 592.24 1.9 592.28 2.07 592.34 C1.88 592.45 1.76 592.65 1.76 592.88 C1.76 593.22 2.04
							 593.5 2.38 593.5 C2.61 593.5 2.82 593.37 2.92 593.17 C3 593.35 3.04 593.55 3.04 593.76 C3.04 594.6 2.36
							 595.28 1.52 595.28 C0.68 595.28 0 594.6 0 593.76 C0 592.92 0.68 592.24 1.52 592.24 Z" class="st12"/>
			</g>
			<g id="shape41-84" v:mID="41" v:groupContext="shape" transform="translate(4.95604E-13,-48.0723)">
				<title>Sheet.41</title>
				<path d="M0 594.59 L46.47 594.59 L52.22 594.59 L98.69 594.59 C96.54 594.04 91.89 593.31 92.66 590.49 C88.75 595.01
							 79.33 593.66 76.95 591.43 C74.3 595.28 58.88 593.82 57.81 590.82 C54.49 594.72 44.2 594.72 40.88 590.82
							 C39.8 593.81 24.39 595.27 21.74 591.43 C19.36 593.66 9.94 595.01 6.03 590.49 C6.8 593.31 2.15 594.04
							 0 594.59 Z" class="st12"/>
			</g>
			<g id="shape42-86" v:mID="42" v:groupContext="shape" transform="translate(19.0285,-29.0286)">
				<title>Sheet.42</title>
				<path d="M24.14 595.23 C18.88 592.74 16 589.35 14.39 585.65 C12.44 586.2 10.1 586.56 7.37 586.71 C6.34 586.77 5.26
							 586.8 4.13 586.8 C2.82 586.8 1.44 586.76 0 586.68 C4.82 591.5 10.75 595.21 21.72 595.27 C22.53 595.28
							 23.34 595.26 24.14 595.23 Z" class="st20"/>
			</g>
			<g id="shape43-88" v:mID="43" v:groupContext="shape" transform="translate(26.3982,-35.2434)">
				<title>Sheet.43</title>
				<path d="M8.97 595.28 C8.25 594.29 7.54 593.05 7.03 591.86 C5.07 592.42 2.73 592.77 0 592.93 C1.87 593.95 4.55 594.89
							 8.97 595.28 Z" class="st19"/>
			</g>
		</g>
		<g id="shape50-90" v:mID="50" v:groupContext="shape" transform="translate(402.52,-348.661)">
			<title>Sheet.50</title>
			<desc>Azure Function webscraping</desc>
			<v:textBlock v:margins="rect(4,4,4,4)" v:tabSpace="42.5197"/>
			<v:textRect cx="36.8504" cy="578.268" width="73.71" height="34.0157"/>
			<rect x="0" y="561.26" width="73.7008" height="34.0157" class="st21"/>
			<text x="22.78" y="567.47" class="st22" v:langID="1033"><v:paragraph v:horizAlign="1"/><v:tabList/>Azure <tspan
						x="15.55" dy="1.2em" class="st23">Function<v:newlineChar/></tspan><tspan x="6.07" dy="1.2em" class="st23">webscraping</tspan></text>		</g>
		<g id="shape51-95" v:mID="51" v:groupContext="shape" transform="translate(408.189,-207.139)">
			<title>Sheet.51</title>
			<desc>Azure ML Model</desc>
			<v:textBlock v:margins="rect(4,4,4,4)" v:tabSpace="42.5197"/>
			<v:textRect cx="34.0157" cy="578.268" width="68.04" height="34.0157"/>
			<rect x="0" y="561.26" width="68.0315" height="34.0157" class="st21"/>
			<text x="10.94" y="574.67" class="st22" v:langID="1033"><v:paragraph v:horizAlign="1"/><v:tabList/>Azure ML<v:lf/><tspan
						x="18.21" dy="1.2em" class="st23">Model</tspan></text>		</g>
		<g id="shape52-99" v:mID="52" v:groupContext="shape" transform="translate(612.283,-330.087)">
			<title>Sheet.52</title>
			<desc>PostgreSQL Database</desc>
			<v:textBlock v:margins="rect(4,4,4,4)" v:tabSpace="42.5197"/>
			<v:textRect cx="48.189" cy="581.102" width="96.38" height="28.3465"/>
			<rect x="0" y="566.929" width="96.3779" height="28.3465" class="st21"/>
			<text x="20.35" y="577.5" class="st22" v:langID="1033"><v:paragraph v:horizAlign="1"/><v:tabList/>PostgreSQL <tspan
						x="25.38" dy="1.2em" class="st23">Database</tspan></text>		</g>
		<g id="shape53-103" v:mID="53" v:groupContext="shape" transform="translate(150.236,-379.843)">
			<title>Sheet.53</title>
			<desc>Python controller</desc>
			<v:textBlock v:margins="rect(4,4,4,4)" v:tabSpace="42.5197"/>
			<v:textRect cx="42.5197" cy="575.433" width="85.04" height="39.685"/>
			<rect x="0" y="555.591" width="85.0394" height="39.685" class="st21"/>
			<text x="25.23" y="571.83" class="st22" v:langID="1033"><v:paragraph v:horizAlign="1"/><v:tabList/>Python <tspan
						x="18.57" dy="1.2em" class="st23">controller</tspan></text>		</g>
		<g id="group54-107" transform="translate(56.6929,-307.437)" v:mID="54" v:groupContext="group">
			<v:custProps>
				<v:cp v:nameU="Name" v:lbl="Name" v:type="0" v:invis="false" v:ask="false" v:langID="1033"/>
				<v:cp v:nameU="Location" v:lbl="Location" v:type="0" v:invis="false" v:ask="false" v:langID="1033"/>
				<v:cp v:nameU="Building" v:lbl="Building" v:type="0" v:invis="false" v:ask="false" v:langID="1033"/>
				<v:cp v:nameU="Room" v:lbl="Room" v:type="0" v:invis="false" v:ask="false" v:langID="1033"/>
				<v:cp v:nameU="Department" v:lbl="Department" v:type="0" v:invis="false" v:ask="false" v:langID="1033"/>
				<v:cp v:nameU="ShapeClass" v:lbl="ShapeClass" v:type="0" v:invis="true" v:ask="false" v:langID="1033"
						v:val="VT4(Connectivity)"/>
				<v:cp v:nameU="ShapeType" v:lbl="ShapeType" v:type="0" v:invis="true" v:ask="false" v:langID="1033"
						v:val="VT4(User)"/>
			</v:custProps>
			<v:userDefs>
				<v:ud v:nameU="HasText" v:val="VT0(0):5"/>
				<v:ud v:nameU="ShapeClass" v:val="VT0(4):26"/>
				<v:ud v:nameU="ShapeType" v:val="VT0(4):26"/>
				<v:ud v:nameU="SolSH" v:val="VT15({BF0433D9-CD73-4EB5-8390-8653BE590246}):41"/>
				<v:ud v:nameU="visLegendShape" v:val="VT0(2):26"/>
				<v:ud v:nameU="visVersion" v:prompt="" v:val="VT0(15):26"/>
			</v:userDefs>
			<title>User</title>
			<g id="shape55-108" v:mID="55" v:groupContext="shape" transform="translate(-4.60905,0)">
				<title>Sheet.55</title>
				<path d="M11.66 558.37 A19.0671 18.6615 -180 0 0 -0 574.69 L0.06 582.34 A6.49779 6.35958 -180 0 0 2.49 587.38 A2.50228
							 2.44905 -180 0 0 5.27 587.84 A3.34855 3.27733 -180 0 0 6.87 590.32 A45.299 44.3354 -180 0 0 28.24 595.27
							 A14.6407 14.3293 -180 0 0 35.12 593.48 A2.37367 2.32318 -180 0 0 37.88 593.92 A9.81186 9.60315 -180
							 0 0 42.49 589.2 L42.49 575.7 A18.6915 18.2939 -180 0 0 30.86 559.7 L30.75 559.7 A12.641 12.3721 -180
							 1 0 11.69 558.37 L11.66 558.37 Z" class="st24"/>
				<path d="M11.66 558.37 A19.0671 18.6615 -180 0 0 -0 574.69 L0.06 582.34 A6.49779 6.35958 -180 0 0 2.49 587.38 A2.50228
							 2.44905 -180 0 0 5.27 587.84 A3.34855 3.27733 -180 0 0 6.87 590.32 A45.299 44.3354 -180 0 0 28.24 595.27
							 A14.6407 14.3293 -180 0 0 35.12 593.48 A2.37367 2.32318 -180 0 0 37.88 593.92 A9.81186 9.60315 -180
							 0 0 42.49 589.2 L42.49 575.7 A18.6915 18.2939 -180 0 0 30.86 559.7 L30.75 559.7 A12.641 12.3721 -180
							 1 0 11.69 558.37" class="st25"/>
			</g>
			<g id="shape56-111" v:mID="56" v:groupContext="shape" transform="translate(0.0287731,-5.68434E-13)">
				<title>Sheet.56</title>
				<path d="M6.87 590.32 A45.299 44.3354 -180 0 0 28.24 595.27 A14.6407 14.3293 -180 0 0 35.12 593.48 A2.37367 2.32318
							 -180 0 0 37.88 593.92 A9.81186 9.60315 -180 0 0 42.49 589.2 L42.49 575.7 A18.6915 18.2939 -180 0 0 30.86
							 559.7 L11.66 558.37 A19.0671 18.6615 -180 0 0 -0 574.69 L0.06 582.34 A6.49779 6.35958 -180 0 0 2.49
							 587.38 A2.50228 2.44905 -180 0 0 5.27 587.84 A3.34855 3.27733 -180 0 0 6.87 590.32 Z" class="st26"/>
				<path d="M6.87 590.32 A45.299 44.3354 -180 0 0 28.24 595.27 A14.6407 14.3293 -180 0 0 35.12 593.48 A2.37367 2.32318
							 -180 0 0 37.88 593.92 A9.81186 9.60315 -180 0 0 42.49 589.2 L42.49 575.7 A18.6915 18.2939 -180 0 0 30.86
							 559.7M11.66 558.37 A19.0671 18.6615 -180 0 0 -0 574.69 L0.06 582.34 A6.49779 6.35958 -180 0 0 2.49 587.38
							 A2.50228 2.44905 -180 0 0 5.27 587.84 A3.34855 3.27733 -180 0 0 6.87 590.32" class="st27"/>
			</g>
			<g id="shape57-116" v:mID="57" v:groupContext="shape" transform="translate(9.19345,-31.9487)">
				<title>Sheet.57</title>
				<ellipse cx="12.641" cy="582.903" rx="12.641" ry="12.3721" class="st28"/>
			</g>
			<g id="shape58-119" v:mID="58" v:groupContext="shape" transform="translate(-581.887,490.023) rotate(-80.5423)">
				<title>Sheet.58</title>
				<path d="M-0 595.28 A43.8253 55.1945 0 0 1 23.71 595.28" class="st29"/>
			</g>
			<g id="shape59-123" v:mID="59" v:groupContext="shape" transform="translate(-557.335,637.566) rotate(-94.2553)">
				<title>Sheet.59</title>
				<path d="M-0 594.12 A84.7366 106.767 -180 0 0 24.82 594.12" class="st29"/>
			</g>
			<g id="shape60-127" v:mID="60" v:groupContext="shape" transform="translate(11.7216,-32.1571)">
				<title>Sheet.60</title>
				<path d="M0 590.32 A12.6648 12.3954 -180 0 0 19.09 591.65" class="st27"/>
			</g>
			<g id="shape61-131" v:mID="61" v:groupContext="shape" transform="translate(0.0287731,0)">
				<title>Sheet.61</title>
				<path d="M11.66 558.37 A19.4535 19.0397 -180 0 0 -0 574.69 L0.06 582.34 A6.49779 6.35958 -180 0 0 2.49 587.38 A2.50228
							 2.44905 -180 0 0 5.27 587.84 A3.34855 3.27733 -180 0 0 6.87 590.32 A45.299 44.3354 -180 0 0 28.24 595.27
							 A14.6407 14.3293 -180 0 0 35.12 593.48 A2.37367 2.32318 -180 0 0 37.88 593.92 A9.81186 9.60315 -180
							 0 0 42.49 589.2 L42.49 576.95 A18.5051 18.1115 -180 0 0 30.86 559.7 L30.75 559.7 A12.646 12.377 -180
							 1 0 11.66 558.37" class="st30"/>
			</g>
		</g>
		<g id="shape62-134" v:mID="62" v:groupContext="shape" transform="translate(56.6929,-267.59)">
			<title>Sheet.62</title>
			<desc>User</desc>
			<v:textBlock v:margins="rect(4,4,4,4)" v:tabSpace="42.5197"/>
			<v:textRect cx="22.6772" cy="583.937" width="45.36" height="22.6772"/>
			<rect x="0" y="572.598" width="45.3543" height="22.6772" class="st21"/>
			<text x="11.4" y="580.34" class="st22" v:langID="1033"><v:paragraph v:horizAlign="1"/><v:tabList/>User<v:newlineChar/></text>		</g>
		<g id="shape63-137" v:mID="63" v:groupContext="shape" v:layerMember="0" transform="translate(87.6832,-335.882)">
			<title>Dynamic connector</title>
			<path d="M0 588.19 L117.26 588.19" class="st31"/>
		</g>
		<g id="shape64-143" v:mID="64" v:groupContext="shape" v:layerMember="0" transform="translate(246.83,-391.181)">
			<title>Dynamic connector.64</title>
			<path d="M0 595.28 L0 561.26 L64.98 561.26" class="st33"/>
		</g>
		<g id="shape65-146" v:mID="65" v:groupContext="shape" v:layerMember="0" transform="translate(412.977,-418.11)">
			<title>Dynamic connector.65</title>
			<path d="M-6.68 588.19 L-7.04 588.19 L-101.17 588.19" class="st34"/>
		</g>
		<g id="shape66-152" v:mID="66" v:groupContext="shape" v:layerMember="0" transform="translate(459.589,-427.354)">
			<title>Dynamic connector.66</title>
			<path d="M0 595.28 L127.18 595.28 L127.18 647.09" class="st31"/>
		</g>
		<g id="shape68-157" v:mID="68" v:groupContext="shape" v:layerMember="0" transform="translate(419.982,-402.324)">
			<title>Dynamic connector.68</title>
			<path d="M0 595.28 L-150.7 595.28 L-150.7 625.24" class="st31"/>
		</g>
		<g id="shape70-162" v:mID="70" v:groupContext="shape" v:layerMember="0" transform="translate(413.785,-259.37)">
			<title>Dynamic connector.70</title>
			<path d="M-6.68 588.19 L-7.04 588.19 L-73.63 588.19" class="st34"/>
		</g>
		<g id="shape73-167" v:mID="73" v:groupContext="shape" v:layerMember="0" transform="translate(411.12,-252.281)">
			<title>Dynamic connector.73</title>
			<path d="M0 595.28 L-183.03 595.28 L-183.03 543.85" class="st31"/>
		</g>
		<g id="shape74-172" v:mID="74" v:groupContext="shape" v:layerMember="0" transform="translate(245.724,-309.164)">
			<title>Dynamic connector.74</title>
			<path d="M0 595.28 L0 637.98 L94.43 637.98" class="st33"/>
		</g>
		<g id="shape76-175" v:mID="76" v:groupContext="shape" v:layerMember="0" transform="translate(473.303,-252.281)">
			<title>Dynamic connector.76</title>
			<path d="M0 595.28 L113.47 595.28 L113.47 534.58" class="st31"/>
		</g>
		<g id="shape77-180" v:mID="77" v:groupContext="shape" transform="translate(107.717,-342.969)">
			<title>Sheet.77</title>
			<desc>Passes URL</desc>
			<v:textBlock v:margins="rect(4,4,4,4)" v:tabSpace="42.5197"/>
			<v:textRect cx="39.685" cy="588.177" width="79.38" height="14.1966"/>
			<rect x="0" y="581.079" width="79.3701" height="14.1966" class="st21"/>
			<text x="12.7" y="591.78" class="st35" v:langID="1033"><v:paragraph v:horizAlign="1"/><v:tabList/>Passes URL</text>		</g>
		<g id="shape79-183" v:mID="79" v:groupContext="shape" transform="translate(283.465,-428.031)">
			<title>Sheet.79</title>
			<desc>Calls</desc>
			<v:textBlock v:margins="rect(4,4,4,4)" v:tabSpace="42.5197"/>
			<v:textRect cx="53.8583" cy="586.772" width="107.72" height="17.0079"/>
			<rect x="0" y="578.268" width="107.717" height="17.0079" class="st21"/>
			<text x="42.68" y="590.37" class="st35" v:langID="1033"><v:paragraph v:horizAlign="1"/><v:tabList/>Calls</text>		</g>
		<g id="shape81-186" v:mID="81" v:groupContext="shape" transform="translate(493.228,-427.354)">
			<title>Sheet.81</title>
			<desc>Saves data</desc>
			<v:textBlock v:margins="rect(4,4,4,4)" v:tabSpace="42.5197"/>
			<v:textRect cx="45.3543" cy="587.85" width="90.71" height="14.8507"/>
			<rect x="0" y="580.425" width="90.7087" height="14.8507" class="st21"/>
			<text x="19.41" y="591.45" class="st35" v:langID="1033"><v:paragraph v:horizAlign="1"/><v:tabList/>Saves data</text>		</g>
		<g id="shape83-189" v:mID="83" v:groupContext="shape" transform="translate(300.472,-379.843)">
			<title>Sheet.83</title>
			<desc>Returns scrapped data ID</desc>
			<v:textBlock v:margins="rect(4,4,4,4)" v:tabSpace="42.5197"/>
			<v:textRect cx="48.189" cy="586.772" width="96.38" height="17.0079"/>
			<rect x="0" y="578.268" width="96.3779" height="17.0079" class="st21"/>
			<text x="5.54" y="583.17" class="st35" v:langID="1033"><v:paragraph v:horizAlign="1"/><v:tabList/>Returns scrapped <tspan
						x="30.72" dy="1.2em" class="st23">data ID</tspan></text>		</g>
		<g id="shape84-193" v:mID="84" v:groupContext="shape" transform="translate(283.465,-273.421)">
			<title>Sheet.84</title>
			<desc>Passes scrapped data ID</desc>
			<v:textBlock v:margins="rect(4,4,4,4)" v:tabSpace="42.5197"/>
			<v:textRect cx="51.0236" cy="583.937" width="102.05" height="22.6772"/>
			<rect x="0" y="572.598" width="102.047" height="22.6772" class="st21"/>
			<text x="11.38" y="580.34" class="st35" v:langID="1033"><v:paragraph v:horizAlign="1"/><v:tabList/>Passes scrapped <tspan
						x="33.55" dy="1.2em" class="st23">data ID</tspan></text>		</g>
		<g id="shape86-197" v:mID="86" v:groupContext="shape" transform="translate(487.559,-263.622)">
			<title>Sheet.86</title>
			<desc>Accesses scrapped data</desc>
			<v:textBlock v:margins="rect(4,4,4,4)" v:tabSpace="42.5197"/>
			<v:textRect cx="42.5197" cy="586.772" width="85.04" height="17.0079"/>
			<rect x="0" y="578.268" width="85.0394" height="17.0079" class="st21"/>
			<text x="20.96" y="583.17" class="st35" v:langID="1033"><v:paragraph v:horizAlign="1"/><v:tabList/>Accesses <tspan
						x="7.96" dy="1.2em" class="st23">scrapped data</tspan></text>		</g>
		<g id="shape87-201" v:mID="87" v:groupContext="shape" transform="translate(277.795,-221.102)">
			<title>Sheet.87</title>
			<desc>Returns interactive elements</desc>
			<v:textBlock v:margins="rect(4,4,4,4)" v:tabSpace="42.5197"/>
			<v:textRect cx="56.6929" cy="581.102" width="113.39" height="28.3465"/>
			<rect x="0" y="566.929" width="113.386" height="28.3465" class="st21"/>
			<text x="10.23" y="577.5" class="st35" v:langID="1033"><v:paragraph v:horizAlign="1"/><v:tabList/>Returns interactive <tspan
						x="34.06" dy="1.2em" class="st23">elements</tspan></text>		</g>
	</g>
</svg>
